<svg width="25" height="35" viewBox="0 0 16 18" fill="none" xmlns="http://www.w3.org/2000/svg">
<path d="M4.54185 17.5162H11.4651C12.6253 17.5162 13.3711 16.8156 13.4314 15.6554L13.9361 4.8072H14.7648C15.149 4.8072 15.4428 4.50586 15.4428 4.12918C15.4428 3.75251 15.1415 3.46624 14.7648 3.46624H11.4199V2.33622C11.4199 1.17606 10.6816 0.498047 9.42355 0.498047H6.56083C5.30273 0.498047 4.56445 1.17606 4.56445 2.33622V3.46624H1.23465C0.85798 3.46624 0.556641 3.76004 0.556641 4.12918C0.556641 4.51339 0.85798 4.8072 1.23465 4.8072H2.06334L2.56808 15.6554C2.62835 16.8231 3.36663 17.5162 4.54185 17.5162ZM5.97322 2.40402C5.97322 2.01981 6.24442 1.77121 6.65876 1.77121H9.32561C9.73996 1.77121 10.0112 2.01981 10.0112 2.40402V3.46624H5.97322V2.40402ZM4.69252 16.1677C4.27818 16.1677 3.97684 15.8588 3.95424 15.4143L3.4495 4.8072H12.5273L12.0377 15.4143C12.0226 15.8663 11.7288 16.1677 11.2994 16.1677H4.69252ZM5.77734 14.9548C6.10128 14.9548 6.30469 14.7514 6.29715 14.4501L6.07115 6.57003C6.06362 6.26869 5.85268 6.07282 5.54381 6.07282C5.2274 6.07282 5.024 6.27623 5.03153 6.57757L5.25753 14.4576C5.26507 14.7589 5.47601 14.9548 5.77734 14.9548ZM7.99972 14.9548C8.31613 14.9548 8.5346 14.7589 8.5346 14.4576V6.57757C8.5346 6.27623 8.31613 6.07282 7.99972 6.07282C7.68332 6.07282 7.47238 6.27623 7.47238 6.57757V14.4576C7.47238 14.7589 7.68332 14.9548 7.99972 14.9548ZM10.2221 14.9623C10.5234 14.9623 10.7344 14.7589 10.7419 14.4576L10.9679 6.57757C10.9754 6.27623 10.772 6.08036 10.4556 6.08036C10.1468 6.08036 9.93583 6.27623 9.92829 6.57757L9.70229 14.4576C9.69476 14.7514 9.89816 14.9623 10.2221 14.9623Z" fill="white"/>
</svg>
